<?xml version="1.0" standalone="no"?>
<!DOCTYPE svg PUBLIC "-//W3C//DTD SVG 20010904//EN"
 "http://www.w3.org/TR/2001/REC-SVG-20010904/DTD/svg10.dtd">
<svg version="1.0" xmlns="http://www.w3.org/2000/svg"
 width="259.000000pt" height="194.000000pt" viewBox="0 0 259.000000 194.000000"
 preserveAspectRatio="xMidYMid meet">
<metadata>
Created by potrace 1.10, written by Peter Selinger 2001-2011
</metadata>
<g transform="translate(0.000000,194.000000) scale(0.100000,-0.100000)"
fill="#000000" stroke="none">
<path d="M980 1576 c0 -2 7 -21 16 -42 l16 -39 13 30 c12 26 13 27 14 8 1 -35
18 -36 30 -1 14 39 14 51 1 43 -5 -3 -10 -16 -11 -28 -1 -19 -2 -18 -14 8 -13
30 -15 29 -28 -15 -3 -10 -7 -5 -12 13 -4 15 -11 27 -16 27 -5 0 -9 -2 -9 -4z"/>
<path d="M1089 1544 c-17 -21 14 -55 33 -36 9 9 8 12 -5 12 -10 0 -17 7 -16
18 0 10 3 12 6 5 5 -15 23 -17 23 -4 0 16 -28 20 -41 5z"/>
<path d="M1165 1550 c-4 -6 -1 -10 4 -10 6 0 11 -8 11 -17 0 -14 -2 -15 -9 -4
-5 8 -11 9 -15 3 -3 -6 -2 -13 3 -16 16 -10 41 5 41 24 0 20 -26 34 -35 20z"/>
<path d="M1223 1553 c-7 -3 -12 -17 -12 -31 2 -24 2 -24 6 -4 2 12 7 22 10 22
2 0 13 -10 23 -22 15 -19 21 -21 31 -10 11 10 10 12 -4 12 -10 0 -17 8 -17 18
0 14 2 15 10 2 5 -8 12 -11 17 -7 12 12 -20 27 -33 16 -7 -5 -14 -6 -16 -1 -1
5 -9 7 -15 5z"/>
<path d="M1315 1549 c-10 -14 -1 -21 19 -13 9 3 13 10 10 15 -7 12 -21 11 -29
-2z"/>
<path d="M1362 1547 c-16 -19 11 -58 28 -41 14 14 10 46 -6 51 -6 2 -16 -2
-22 -10z m28 -17 c0 -5 -4 -10 -10 -10 -5 0 -10 5 -10 10 0 6 5 10 10 10 6 0
10 -4 10 -10z"/>
<path d="M1410 1526 c0 -32 13 -27 24 10 4 15 2 21 -9 21 -10 0 -15 -10 -15
-31z"/>
<path d="M1462 1551 c-8 -4 -12 -19 -10 -32 4 -23 5 -23 17 6 11 27 13 28 23
12 5 -10 7 -25 4 -33 -10 -25 10 -15 22 11 17 36 15 53 -3 29 -13 -17 -14 -17
-15 -1 0 18 -17 22 -38 8z"/>
<path d="M1321 1521 c-9 -6 -10 -11 -2 -15 13 -8 31 1 31 15 0 11 -11 11 -29
0z"/>
<path d="M1530 1504 c0 -8 5 -12 10 -9 6 3 10 10 10 16 0 5 -4 9 -10 9 -5 0
-10 -7 -10 -16z"/>
<path d="M810 1411 c0 -13 8 -18 30 -19 25 -1 30 3 30 21 -1 22 -1 22 -15 3
-8 -11 -15 -15 -15 -9 0 6 -7 13 -15 17 -10 3 -15 -1 -15 -13z"/>
<path d="M899 1428 c-6 -25 -6 -38 1 -38 12 0 20 29 10 35 -6 4 -10 5 -11 3z"/>
<path d="M1247 1410 c-4 -15 3 -17 47 -17 28 0 59 -4 69 -8 12 -5 17 -2 18 11
0 18 1 17 9 -1 7 -17 9 -17 9 -2 1 9 9 17 19 17 14 0 15 -2 2 -10 -13 -8 -13
-10 1 -10 27 0 32 30 6 31 -34 2 -52 -2 -55 -12 -2 -5 -8 -9 -13 -9 -6 0 -8 4
-5 9 3 5 -1 11 -9 15 -8 3 -14 0 -12 -6 1 -6 -8 -11 -20 -13 -12 -1 -20 2 -18
6 3 3 -6 9 -19 11 -17 4 -26 0 -29 -12z"/>
<path d="M1515 1422 c-11 -2 -26 -9 -34 -16 -12 -8 -13 -8 -7 2 4 6 2 12 -3
12 -6 0 -11 -7 -11 -15 0 -9 9 -15 25 -15 14 0 25 6 25 13 0 8 4 7 10 -3 8
-12 10 -12 11 5 0 20 0 20 9 0 7 -16 9 -17 9 -3 1 21 -8 26 -34 20z"/>
<path d="M1566 1414 c-8 -22 -9 -21 17 -21 13 0 24 6 24 13 0 8 -3 12 -5 9 -3
-3 -11 0 -17 5 -9 8 -14 6 -19 -6z"/>
<path d="M1620 1413 c0 -14 8 -19 33 -20 17 0 35 4 39 11 6 8 8 8 8 -1 0 -7
10 -13 23 -13 18 0 19 2 7 10 -10 6 -11 10 -2 10 6 0 12 4 12 8 0 5 -13 7 -30
4 -16 -2 -30 -9 -30 -16 0 -8 -2 -8 -8 0 -4 6 -17 14 -29 18 -18 6 -23 3 -23
-11z"/>
<path d="M925 1409 c-4 -6 -5 -12 -2 -15 8 -8 97 -11 92 -4 -3 5 3 6 13 3 11
-3 19 1 19 9 0 8 -12 14 -29 15 -15 0 -26 -3 -23 -7 2 -3 -2 -7 -10 -7 -8 0
-12 4 -9 9 3 4 0 8 -5 8 -6 0 -11 -7 -11 -15 0 -9 -6 -12 -16 -8 -13 5 -13 7
-2 14 9 6 9 9 1 9 -6 0 -15 -5 -18 -11z"/>
<path d="M1063 1399 c1 -10 7 -14 19 -11 10 2 16 8 13 11 -2 4 2 8 10 8 8 0
12 -4 9 -9 -3 -4 0 -8 5 -8 6 0 11 7 11 15 0 12 -9 15 -34 13 -25 -1 -34 -7
-33 -19z"/>
<path d="M1140 1406 c0 -7 19 -12 45 -12 24 -1 42 2 40 6 -3 5 1 10 7 13 7 2
-11 4 -39 4 -33 0 -53 -4 -53 -11z"/>
<path d="M1367 1106 c-3 -8 3 -22 14 -32 22 -19 25 -50 7 -56 -7 -3 -27 0 -45
5 -23 7 -36 7 -47 -2 -18 -15 -9 -44 12 -36 8 3 30 0 48 -7 40 -14 81 3 90 38
7 26 -19 80 -45 94 -25 13 -28 13 -34 -4z m45 -23 c22 -20 24 -76 3 -93 -9 -8
-25 -10 -42 -5 -16 4 -38 7 -50 8 -13 1 -21 7 -20 12 5 13 27 14 50 3 43 -22
75 35 40 74 -20 23 -6 24 19 1z"/>
<path d="M1060 1071 c0 -9 -118 -57 -199 -82 -24 -7 -50 -19 -58 -27 -8 -8
-56 -31 -108 -51 -69 -28 -91 -41 -85 -50 4 -8 12 -11 17 -8 5 3 20 8 34 11
67 15 149 39 145 44 -3 3 -34 -3 -68 -12 -101 -28 -106 -28 -49 -1 29 14 58
25 62 25 5 0 26 11 47 25 20 13 72 36 115 50 43 14 97 34 118 45 l40 19 10
-25 c14 -37 12 -43 -18 -50 -54 -12 -148 -43 -133 -43 8 -1 46 8 83 18 38 11
75 17 84 14 12 -5 15 -2 10 9 -3 9 -11 34 -18 57 -11 36 -29 56 -29 32z"/>
<path d="M1930 1048 c0 -10 -4 -18 -10 -18 -5 0 -10 7 -10 16 0 11 -5 14 -16
10 -9 -3 -20 -6 -25 -6 -4 0 -6 -7 -3 -15 4 -8 1 -22 -6 -30 -14 -17 -30 -20
-30 -5 0 6 8 10 17 10 13 0 14 3 5 12 -8 8 -15 8 -27 -2 -11 -9 -13 -16 -5
-24 16 -16 12 -28 -8 -17 -14 7 -21 5 -29 -9 -12 -18 -8 -30 9 -30 5 0 7 4 3
9 -11 18 17 23 30 5 12 -17 14 -17 48 6 20 14 34 27 31 29 -2 3 -18 -6 -35
-18 -17 -13 -33 -20 -36 -17 -8 8 49 54 76 61 27 7 42 -2 23 -14 -8 -5 -1 -8
18 -8 19 0 26 3 18 8 -19 12 -4 21 23 14 28 -7 84 -53 76 -62 -3 -3 -18 4 -33
16 -15 11 -32 21 -38 21 -6 0 1 -8 17 -18 15 -9 27 -20 27 -24 0 -5 9 -8 20
-8 11 0 20 7 20 15 0 8 4 15 9 15 14 0 22 -16 13 -24 -10 -11 -11 -136 0 -142
13 -9 9 -24 -7 -24 -8 0 -15 7 -15 15 0 17 -26 20 -36 4 -3 -6 -26 -20 -50
-30 -40 -18 -46 -18 -80 -4 -20 8 -39 13 -42 10 -5 -5 42 -25 59 -25 5 0 9 -4
9 -10 0 -13 -26 -13 -53 1 -21 10 -21 10 -3 -5 11 -9 26 -16 33 -16 7 0 13 -9
13 -20 0 -13 7 -20 20 -20 13 0 20 6 19 18 0 10 -3 12 -6 5 -7 -19 -23 -16
-23 5 0 14 8 17 40 17 23 0 39 -4 36 -10 -2 -5 -9 -9 -15 -8 -6 2 -11 -2 -11
-7 0 -11 11 -13 33 -4 9 3 13 14 10 27 -4 20 -3 21 10 5 13 -17 15 -17 30 0
13 15 14 21 4 32 -10 10 -9 12 7 6 12 -4 23 0 31 11 11 14 10 19 -4 30 -14 11
-14 12 7 13 17 0 22 6 22 25 0 18 -4 23 -15 19 -8 -4 -15 -1 -15 5 0 6 7 11
15 11 9 0 15 10 15 26 0 21 -4 24 -20 19 -23 -7 -28 10 -5 19 13 4 13 9 3 25
-9 15 -16 17 -30 10 -20 -11 -24 1 -8 17 8 8 6 15 -5 24 -12 10 -18 10 -32 -1
-15 -13 -16 -12 -11 9 4 12 2 22 -2 22 -5 0 -15 3 -24 6 -9 3 -16 1 -16 -5 0
-6 7 -11 15 -11 8 0 15 -4 15 -10 0 -11 -11 -13 -34 -4 -9 3 -16 14 -16 24 0
13 -7 18 -20 17 -12 -1 -20 -8 -20 -19z m30 -13 c0 -8 -4 -15 -10 -15 -5 0
-10 7 -10 15 0 8 5 15 10 15 6 0 10 -7 10 -15z m-55 -5 c3 -5 -1 -10 -9 -10
-9 0 -16 5 -16 10 0 6 4 10 9 10 6 0 13 -4 16 -10z m165 -30 c0 -5 -4 -10 -10
-10 -5 0 -10 5 -10 10 0 6 5 10 10 10 6 0 10 -4 10 -10z m60 -100 c0 -5 -4
-10 -10 -10 -5 0 -10 5 -10 10 0 6 5 10 10 10 6 0 10 -4 10 -10z m-10 -60 c0
-5 -5 -10 -11 -10 -5 0 -7 5 -4 10 3 6 8 10 11 10 2 0 4 -4 4 -10z m-52 -52
c-11 -33 -108 -75 -108 -48 0 6 9 10 19 10 11 0 33 11 48 25 31 27 47 32 41
13z m2 -37 c0 -6 -4 -13 -10 -16 -5 -3 -10 1 -10 9 0 9 5 16 10 16 6 0 10 -4
10 -9z"/>
<path d="M2270 1060 c0 -5 6 -7 14 -4 21 8 56 -14 56 -35 0 -23 -31 -51 -56
-51 -23 0 -64 -27 -64 -41 0 -6 12 -1 26 10 15 12 37 21 50 21 23 0 64 35 64
54 0 17 -13 32 -37 45 -26 14 -53 14 -53 1z"/>
<path d="M470 1022 c-15 -12 -21 -26 -18 -42 l4 -25 12 28 c14 33 45 34 50 2
5 -25 22 -46 32 -40 10 6 -26 77 -44 87 -8 5 -23 1 -36 -10z"/>
<path d="M1204 975 c-4 -9 -1 -22 5 -28 9 -9 11 -8 6 4 -10 25 16 35 32 13 14
-19 15 -19 11 1 -4 25 -46 33 -54 10z"/>
<path d="M1616 957 c3 -10 9 -15 12 -12 3 3 0 11 -7 18 -10 9 -11 8 -5 -6z"/>
<path d="M1898 948 c-13 -13 -22 -22 -19 -20 2 1 15 -8 28 -20 13 -12 23 -16
23 -10 0 6 -9 17 -21 26 l-21 14 20 11 c28 15 64 14 88 -3 17 -13 17 -15 2
-21 -9 -4 -19 -14 -23 -23 -4 -12 1 -10 18 6 l24 22 12 -26 12 -27 -48 6 c-26
3 -66 2 -88 -3 l-40 -8 40 -2 c142 -7 143 -7 139 20 -6 36 -58 80 -94 80 -16
0 -39 -10 -52 -22z"/>
<path d="M270 940 c0 -6 11 -8 25 -4 31 8 75 -19 75 -44 0 -23 -36 -57 -70
-67 -33 -10 -60 -34 -60 -54 0 -12 6 -9 23 11 12 14 39 31 59 38 39 12 68 42
68 70 0 31 -39 60 -80 60 -22 0 -40 -5 -40 -10z"/>
<path d="M581 936 c-9 -10 -9 -16 -1 -21 17 -10 37 12 24 25 -8 8 -15 6 -23
-4z"/>
<path d="M1240 931 c-175 -54 -227 -247 -100 -373 l47 -48 -58 0 -59 0 0 35
c0 32 -2 35 -30 35 l-30 0 0 164 c0 185 4 176 -84 176 -39 0 -57 -5 -69 -18
-10 -10 -17 -21 -17 -24 0 -4 -35 -66 -77 -140 -58 -101 -77 -145 -81 -180
l-5 -48 -113 0 c-85 0 -114 3 -114 13 0 9 -2 9 -8 0 -5 -9 -51 -13 -147 -16
-77 -1 101 -4 395 -5 294 -1 564 -2 600 -3 36 0 85 1 110 1 l45 2 -35 8 c-19
4 -28 8 -19 9 8 0 26 12 39 26 13 14 30 23 38 20 7 -2 11 -1 8 4 -3 5 4 30 15
56 56 127 -5 261 -137 301 -51 15 -76 16 -114 5z m159 -49 c64 -39 94 -99 89
-178 -5 -83 -38 -133 -113 -169 -45 -23 -64 -27 -100 -21 -180 24 -247 226
-117 349 63 60 162 68 241 19z m-409 -146 c5 -148 6 -160 25 -166 11 -4 23 -6
28 -3 4 2 7 -5 7 -16 0 -12 -6 -21 -12 -22 -61 -5 -253 -6 -290 -2 -45 5 -48
7 -48 36 0 19 24 72 64 141 35 61 73 130 85 154 l22 43 57 -3 57 -3 5 -159z"/>
<path d="M1183 868 c-35 -25 -73 -86 -72 -114 0 -13 3 -10 9 8 12 40 48 87 84
109 17 10 26 19 21 19 -6 0 -25 -10 -42 -22z"/>
<path d="M1274 871 c47 -7 68 -33 45 -56 -16 -16 -78 -23 -97 -11 -15 9 -15
38 -2 54 5 7 3 6 -6 -2 -28 -24 -11 -64 32 -72 51 -9 98 6 102 35 6 36 -25 61
-72 60 l-41 -2 39 -6z"/>
<path d="M1410 846 c0 -2 8 -10 18 -17 15 -13 16 -12 3 4 -13 16 -21 21 -21
13z"/>
<path d="M1432 750 c0 -14 2 -19 5 -12 2 6 2 18 0 25 -3 6 -5 1 -5 -13z"/>
<path d="M1111 664 c0 -11 3 -14 6 -6 3 7 2 16 -1 19 -3 4 -6 -2 -5 -13z"/>
<path d="M1278 599 c-20 -11 -24 -34 -8 -44 6 -3 7 1 4 9 -6 16 32 39 49 29
13 -8 7 -33 -8 -33 -8 0 -15 -4 -15 -10 0 -14 11 -12 33 4 16 12 16 17 5 35
-14 23 -33 26 -60 10z"/>
<path d="M873 803 c-47 -60 -126 -214 -116 -224 14 -14 140 -16 153 -3 14 14
17 241 3 255 -7 7 -20 -2 -40 -28z m36 -98 l2 -125 -75 0 -74 0 71 125 c39 69
72 125 73 125 1 0 3 -56 3 -125z"/>
<path d="M823 603 c15 -2 37 -2 50 0 12 2 0 4 -28 4 -27 0 -38 -2 -22 -4z"/>
<path d="M1952 920 c0 -14 2 -19 5 -12 2 6 2 18 0 25 -3 6 -5 1 -5 -13z"/>
<path d="M2062 875 c0 -49 2 -55 10 -33 5 16 5 39 0 60 -9 30 -9 27 -10 -27z"/>
<path d="M1709 903 c-31 -37 -179 -310 -179 -331 0 -15 -6 -22 -18 -22 -27 0
-52 -22 -57 -49 -4 -20 13 -43 97 -128 108 -109 136 -123 171 -85 32 35 21 62
-58 141 -41 41 -75 77 -75 79 0 3 132 3 293 0 160 -2 235 -3 165 -1 -127 4
-128 4 -128 27 0 41 -9 53 -38 48 l-27 -4 0 169 0 168 -66 3 c-53 2 -68 -1
-80 -15z m122 -5 c0 -2 2 -68 5 -148 6 -182 8 -190 39 -190 16 0 25 -6 25 -15
0 -12 -15 -15 -67 -16 -118 -2 -228 -7 -238 -10 -5 -2 -21 4 -34 13 -24 17
-24 17 -7 62 10 25 28 61 42 81 13 20 24 38 24 40 0 3 20 39 45 81 25 41 45
79 45 84 0 5 10 11 23 13 25 5 97 8 98 5z m-278 -372 c9 -7 17 -17 17 -22 0
-5 35 -43 77 -86 42 -43 74 -80 70 -84 -16 -16 -59 12 -130 85 -42 43 -77 76
-77 72 0 -4 37 -44 81 -89 56 -56 89 -82 105 -82 13 0 24 -4 24 -10 0 -10 -14
-14 -40 -10 -20 2 -187 168 -193 190 -6 23 8 45 22 36 6 -4 11 -2 11 3 0 14
11 13 33 -3z"/>
<path d="M1699 768 c-23 -40 -56 -95 -72 -123 -39 -66 -30 -81 49 -78 107 3
101 -5 96 130 -2 65 -5 124 -7 131 -9 25 -25 10 -66 -60z m58 -185 c-3 -2 -36
-3 -74 -1 l-70 3 71 125 71 125 3 -124 c1 -68 1 -126 -1 -128z"/>
<path d="M2170 864 c0 -17 22 -14 28 4 2 7 -3 12 -12 12 -9 0 -16 -7 -16 -16z"/>
<path d="M1910 840 c-12 -12 -25 -18 -30 -15 -6 3 -7 -1 -4 -10 6 -14 11 -12
35 11 16 15 29 29 29 31 0 8 -12 1 -30 -17z"/>
<path d="M1979 836 c31 -34 18 -50 -37 -44 -22 2 -38 0 -36 -4 3 -5 23 -8 44
-8 29 0 46 7 65 25 14 14 25 31 25 37 0 7 -7 3 -16 -8 -11 -13 -17 -15 -20 -6
-3 7 -15 17 -27 23 -21 11 -20 10 2 -15z"/>
<path d="M671 834 c0 -11 3 -14 6 -6 3 7 2 16 -1 19 -3 4 -6 -2 -5 -13z"/>
<path d="M438 818 c2 -10 -1 -18 -7 -18 -6 0 -11 5 -11 10 0 6 -7 10 -15 10
-9 0 -15 -9 -15 -21 0 -17 -3 -19 -14 -10 -10 9 -17 7 -27 -5 -12 -15 -11 -16
8 -10 12 4 24 2 28 -4 3 -5 1 -10 -4 -10 -6 0 -11 -5 -11 -12 0 -7 6 -6 18 4
33 28 52 30 52 3 0 -26 -25 -39 -56 -29 -16 5 -16 4 -4 -5 13 -9 12 -11 -5
-11 -18 -1 -19 -1 -2 -11 20 -12 22 -40 5 -57 -20 -20 -28 -14 -28 24 0 19 -5
44 -10 55 -8 14 -7 19 2 19 9 0 9 3 0 12 -17 17 -36 -10 -20 -29 8 -10 6 -13
-6 -13 -21 0 -21 -26 0 -34 14 -5 15 -4 5 8 -9 11 -8 15 4 20 12 4 15 -3 15
-34 0 -31 -3 -38 -15 -34 -8 4 -12 10 -9 15 3 5 0 9 -5 9 -6 0 -11 -9 -11 -21
0 -15 5 -19 15 -15 8 3 15 1 15 -4 0 -6 -4 -10 -10 -10 -5 0 -7 -7 -4 -15 4
-8 14 -15 23 -15 12 0 13 2 3 8 -7 5 -10 16 -6 25 3 9 10 14 15 11 5 -2 18 0
30 7 17 9 20 17 16 45 -3 19 -2 32 3 29 5 -3 11 -1 15 5 3 5 12 10 18 10 7 0
4 -5 -5 -11 -21 -12 -24 -59 -5 -78 10 -11 9 -13 -5 -8 -9 3 -24 -1 -35 -9
-17 -14 -17 -15 2 -5 26 12 55 -3 55 -29 0 -24 -8 -25 -38 -4 -21 15 -25 15
-42 -1 -15 -13 -16 -20 -7 -30 9 -10 16 -10 32 1 12 8 26 10 34 5 9 -6 10 -11
2 -15 -6 -4 -15 -4 -21 -1 -5 3 -10 1 -10 -4 0 -16 26 -13 39 3 7 8 16 27 21
43 6 21 9 23 9 8 1 -11 10 -30 20 -42 22 -26 54 -32 45 -8 -4 8 -1 15 5 15 6
0 11 -5 11 -12 0 -8 6 -6 17 5 13 13 14 20 5 29 -9 9 -12 8 -12 -7 0 -14 -3
-16 -12 -7 -8 8 -8 15 3 28 11 14 11 18 -4 29 -23 17 -22 28 2 15 13 -7 22 -7
26 0 4 7 12 7 25 0 14 -7 19 -5 23 10 3 13 0 20 -10 20 -8 0 -11 -4 -8 -10 3
-5 2 -10 -3 -10 -5 0 -9 14 -9 30 0 17 4 30 9 30 5 0 6 -4 3 -10 -3 -5 1 -10
9 -10 10 0 13 6 10 15 -4 8 -13 15 -21 15 -12 0 -13 3 -3 15 14 17 3 38 -17
31 -10 -4 -13 -1 -8 13 6 20 -20 38 -30 21 -4 -6 2 -10 12 -10 15 0 16 -2 3
-10 -16 -10 -36 13 -25 30 3 6 -1 13 -10 17 -15 5 -34 -10 -35 -29 0 -4 14
-15 30 -25 34 -19 37 -28 15 -37 -22 -8 -45 4 -55 28 -8 19 -9 19 -9 2 -1 -10
7 -25 17 -33 16 -14 16 -14 -1 -9 -10 3 -22 6 -25 6 -4 0 -6 17 -6 38 3 59 3
63 13 57 5 -3 12 -1 15 4 3 5 -5 11 -18 13 -19 4 -22 1 -18 -14z m-19 -22 c9
-11 7 -15 -8 -19 -14 -3 -17 0 -14 14 6 23 7 23 22 5z m94 -5 c3 -14 1 -18 -9
-14 -15 6 -18 16 -7 26 9 10 10 9 16 -12z m60 -44 c4 3 6 -6 5 -20 -1 -17 -6
-23 -12 -17 -5 5 -19 4 -36 -5 -15 -8 -31 -11 -35 -7 -5 4 -5 -1 -2 -11 17
-46 -41 -76 -67 -34 -18 29 4 52 51 52 45 1 77 20 68 43 -4 12 -2 12 8 4 8 -7
17 -9 20 -5z m-3 -83 c0 -11 -3 -24 -6 -27 -9 -9 -46 12 -39 23 3 5 0 12 -6
15 -7 5 -2 12 13 19 26 14 38 5 38 -30z m-57 -14 c-7 -27 -44 -49 -68 -39 -18
7 -18 8 5 8 30 1 44 10 53 34 9 23 16 22 10 -3z m17 -40 c13 -9 12 -13 -9 -30
-13 -11 -29 -20 -37 -20 -20 0 -17 37 4 49 21 13 24 13 42 1z m-145 -52 c-19
-11 -30 -5 -21 11 4 6 14 7 22 4 15 -5 14 -7 -1 -15z m129 -13 c-4 -8 -10 -12
-15 -9 -11 6 -2 24 11 24 5 0 7 -7 4 -15z"/>
<path d="M1943 820 c-1 -11 2 -20 8 -20 5 0 9 9 9 20 0 11 -4 20 -8 20 -4 0
-8 -9 -9 -20z"/>
<path d="M2187 770 c-3 -11 -11 -20 -19 -19 -10 0 -10 2 0 6 17 7 15 23 -3 23
-8 0 -15 -6 -15 -14 0 -8 -5 -18 -12 -22 -7 -5 -8 -3 -3 6 5 8 3 11 -6 8 -8
-3 -14 -11 -15 -19 -2 -32 -17 -79 -26 -79 -5 0 -7 4 -3 9 3 5 1 12 -5 16 -5
3 -10 -3 -10 -14 0 -10 6 -22 13 -24 10 -4 10 -6 0 -6 -18 -1 -16 -31 2 -31
17 0 34 -29 32 -54 -1 -11 4 -21 12 -24 10 -3 12 0 8 12 -4 10 -3 15 3 11 6
-3 10 -13 10 -22 0 -11 6 -14 26 -9 17 5 23 3 19 -4 -11 -18 15 -11 37 10 12
11 28 20 35 20 7 0 13 5 13 11 0 6 -7 8 -15 5 -8 -3 -22 -9 -30 -12 -23 -9
-19 32 5 56 11 11 31 20 45 20 24 0 25 -2 13 -22 -17 -32 -19 -78 -3 -72 7 3
13 15 13 27 0 12 2 33 4 47 3 23 0 25 -34 25 -41 0 -41 14 0 16 21 1 23 2 7 6
-25 7 -61 42 -68 68 -4 13 -5 10 -3 -7 2 -16 -1 -28 -5 -28 -5 0 -10 12 -10
28 -2 27 -2 27 -6 2 -3 -14 -11 -29 -19 -33 -8 -4 -12 -18 -11 -30 2 -12 2
-16 0 -9 -4 12 -16 16 -40 13 -35 -5 11 55 82 107 27 19 28 21 9 22 -13 0 -24
-8 -27 -20z m43 -105 c10 -12 10 -18 0 -30 -16 -19 -39 -19 -46 0 -6 15 11 45
26 45 4 0 13 -7 20 -15z m-95 -23 c-11 -2 -24 -8 -29 -13 -17 -16 -27 -10 -15
9 8 13 19 17 38 13 22 -4 23 -6 6 -9z m37 -29 c19 -17 25 -63 7 -63 -5 0 -7
-4 -4 -10 3 -5 1 -10 -5 -10 -6 0 -10 6 -8 13 1 6 -10 24 -25 39 -15 15 -27
32 -27 38 0 16 41 12 62 -7z m43 -82 c-12 -12 -20 14 -16 46 l5 38 7 -40 c4
-22 5 -42 4 -44z"/>
<path d="M2243 771 c3 -14 1 -18 -9 -14 -27 10 -14 -5 24 -28 46 -27 83 -34
75 -13 -3 8 -12 13 -20 10 -9 -4 -13 0 -11 11 2 9 -3 18 -10 20 -8 3 -10 -1
-5 -13 6 -16 5 -17 -9 -4 -8 8 -14 20 -11 26 2 6 -3 14 -13 18 -13 5 -15 2
-11 -13z"/>
<path d="M2086 715 c-3 -8 -1 -15 4 -15 6 0 10 7 10 15 0 8 -2 15 -4 15 -2 0
-6 -7 -10 -15z"/>
<path d="M1875 700 c3 -5 13 -10 21 -10 8 0 14 5 14 10 0 6 -9 10 -21 10 -11
0 -17 -4 -14 -10z"/>
<path d="M184 689 c-8 -14 11 -33 25 -25 16 10 13 36 -3 36 -8 0 -18 -5 -22
-11z"/>
<path d="M2300 690 c0 -5 5 -10 10 -10 6 0 10 5 10 10 0 6 -4 10 -10 10 -5 0
-10 -4 -10 -10z"/>
<path d="M2321 676 c-14 -17 -1 -28 19 -16 11 7 12 12 4 20 -8 8 -14 7 -23 -4z"/>
<path d="M2326 625 c-3 -9 0 -15 9 -15 8 0 15 7 15 15 0 8 -4 15 -9 15 -5 0
-11 -7 -15 -15z"/>
<path d="M1501 603 c-10 -26 -10 -27 4 -9 8 11 15 23 15 28 0 15 -7 8 -19 -19z"/>
<path d="M577 595 c-4 -8 -2 -17 3 -20 6 -4 10 -4 10 -1 0 2 3 11 6 20 3 9 2
16 -4 16 -5 0 -12 -7 -15 -15z"/>
<path d="M2082 588 c2 -6 10 -14 16 -16 7 -2 10 2 6 12 -7 18 -28 22 -22 4z"/>
<path d="M2316 585 c-3 -8 -1 -15 4 -15 13 0 22 18 11 24 -5 3 -11 -1 -15 -9z"/>
<path d="M1435 530 c3 -5 8 -10 11 -10 2 0 4 5 4 10 0 6 -5 10 -11 10 -5 0 -7
-4 -4 -10z"/>
<path d="M2247 533 c-12 -12 -7 -22 8 -17 8 4 15 10 15 15 0 11 -14 12 -23 2z"/>
<path d="M1426 434 c-4 -9 -4 -19 -1 -22 2 -3 7 3 11 12 4 9 4 19 1 22 -2 3
-7 -3 -11 -12z"/>
</g>
</svg>
