<?xml version="1.0" standalone="no"?>
<!DOCTYPE svg PUBLIC "-//W3C//DTD SVG 20010904//EN"
 "http://www.w3.org/TR/2001/REC-SVG-20010904/DTD/svg10.dtd">
<svg version="1.0" xmlns="http://www.w3.org/2000/svg"
 width="64.000000pt" height="64.000000pt" viewBox="0 0 64.000000 64.000000"
 preserveAspectRatio="xMidYMid meet">

<g transform="translate(0.000000,64.000000) scale(0.100000,-0.100000)"
fill="#000000" stroke="none">
<path d="M96 604 c-24 -23 -24 -545 0 -568 13 -13 43 -16 174 -16 196 0 190
-4 190 121 0 53 -4 89 -10 89 -5 0 -10 -25 -10 -55 l0 -55 -170 0 -170 0 2
238 3 237 165 0 165 0 3 -27 3 -28 -160 0 c-101 0 -161 -4 -161 -10 0 -6 60
-10 160 -10 l160 0 0 -40 c0 -22 5 -40 10 -40 17 0 12 146 -6 164 -23 24 -325
24 -348 0z m342 -531 l-3 -28 -165 0 -165 0 -3 28 -3 27 171 0 171 0 -3 -27z"/>
<path d="M220 70 c0 -5 23 -10 50 -10 28 0 50 5 50 10 0 6 -22 10 -50 10 -27
0 -50 -4 -50 -10z"/>
<path d="M120 570 c0 -5 16 -10 35 -10 19 0 35 5 35 10 0 6 -16 10 -35 10 -19
0 -35 -4 -35 -10z"/>
<path d="M310 570 c0 -5 5 -10 10 -10 6 0 10 5 10 10 0 6 -4 10 -10 10 -5 0
-10 -4 -10 -10z"/>
<path d="M350 570 c0 -5 5 -10 10 -10 6 0 10 5 10 10 0 6 -4 10 -10 10 -5 0
-10 -4 -10 -10z"/>
<path d="M390 570 c0 -5 5 -10 10 -10 6 0 10 5 10 10 0 6 -4 10 -10 10 -5 0
-10 -4 -10 -10z"/>
<path d="M442 378 c-39 -68 -74 -136 -78 -153 -10 -42 -15 -49 -25 -34 -6 11
-11 11 -21 1 -18 -18 -25 -15 -24 10 1 14 -6 24 -18 26 -21 4 -38 -16 -31 -36
3 -8 -4 -16 -15 -19 -22 -6 -28 -23 -7 -23 6 1 31 5 54 9 29 6 43 5 46 -3 6
-19 94 57 121 105 28 50 31 59 18 59 -5 0 -18 -18 -31 -40 -12 -22 -26 -38
-31 -35 -10 6 67 145 81 145 12 0 11 -7 -1 -31 -7 -12 -7 -19 -1 -19 15 0 82
120 79 139 -2 9 -13 17 -24 19 -17 2 -33 -18 -92 -120z m98 95 c0 -14 -19 -38
-25 -32 -8 8 5 39 16 39 5 0 9 -3 9 -7z m-30 -53 c0 -5 -4 -10 -10 -10 -5 0
-10 5 -10 10 0 6 5 10 10 10 6 0 10 -4 10 -10z"/>
<path d="M160 470 c0 -6 40 -10 100 -10 60 0 100 -4 100 -10 0 -6 -40 -10
-100 -10 -60 0 -100 -4 -100 -10 0 -6 43 -10 110 -10 l110 0 0 30 0 30 -110 0
c-67 0 -110 -4 -110 -10z"/>
<path d="M200 390 c0 -6 27 -10 60 -10 33 0 60 4 60 10 0 6 -27 10 -60 10 -33
0 -60 -4 -60 -10z"/>
<path d="M170 350 c0 -5 16 -10 35 -10 19 0 35 5 35 10 0 6 -16 10 -35 10 -19
0 -35 -4 -35 -10z"/>
<path d="M260 350 c0 -6 27 -10 60 -10 33 0 60 4 60 10 0 6 -27 10 -60 10 -33
0 -60 -4 -60 -10z"/>
<path d="M130 300 c0 -6 45 -10 115 -10 70 0 115 4 115 10 0 6 -45 10 -115 10
-70 0 -115 -4 -115 -10z"/>
<path d="M130 250 c0 -5 23 -10 50 -10 28 0 50 5 50 10 0 6 -22 10 -50 10 -27
0 -50 -4 -50 -10z"/>
</g>
</svg>
