<svg width="52" height="52" viewBox="0 0 52 52" fill="none" xmlns="http://www.w3.org/2000/svg">
<g clip-path="url(#clip0)">
<path d="M51.8683 44.5577C51.6396 43.4595 50.5638 42.7547 49.4657 42.9832C48.3673 43.2119 47.6624 44.2876 47.8911 45.3859C48.0228 46.0184 47.866 46.6669 47.4609 47.165C47.2261 47.4535 46.7031 47.9375 45.836 47.9375H36.6642C35.5423 47.9375 34.6329 48.8469 34.6329 49.9688C34.6329 51.0906 35.5423 52 36.6642 52H45.836C47.6975 52 49.4385 51.172 50.6126 49.7282C51.7926 48.2771 52.2503 46.3926 51.8683 44.5577Z" fill="#ffffff"/>
<path d="M28.0628 27.7031C34.7361 28.3178 40.8065 31.8945 44.5873 37.5331C45.2119 38.4649 46.4739 38.7139 47.4056 38.0891C48.3374 37.4643 48.5862 36.2025 47.9615 35.2707C44.6284 30.2996 39.7883 26.6856 34.2697 24.8695C37.6329 22.3478 39.8129 18.33 39.8129 13.8125C39.8129 6.19623 33.6166 0 26.0004 0C18.3843 0 12.1879 6.19623 12.1879 13.8125C12.1879 18.3329 14.3707 22.3531 17.7376 24.8744C14.6531 25.8898 11.7585 27.469 9.22537 29.5526C4.58072 33.373 1.35133 38.702 0.132277 44.5577C-0.249801 46.3926 0.207941 48.2771 1.38789 49.7281C2.56196 51.172 4.30304 52 6.16458 52H15.0317C16.1536 52 17.0629 51.0906 17.0629 49.9688C17.0629 48.8469 16.1536 47.9375 15.0317 47.9375H6.16438C5.29724 47.9375 4.77419 47.4536 4.53948 47.165C4.13435 46.6668 3.97754 46.0184 4.10926 45.3857C6.09826 35.832 14.1619 28.709 23.7298 27.7255L19.8521 45.3679C19.7035 46.0446 19.9098 46.7503 20.3997 47.2402L24.4624 51.3034C24.8432 51.6844 25.36 51.8984 25.8989 51.8984C26.4377 51.8984 26.9543 51.6843 27.3353 51.3034L31.3976 47.2402C31.8874 46.7502 32.0938 46.0446 31.9451 45.368L28.0628 27.7031ZM16.2504 13.8125C16.2504 8.43629 20.6242 4.0625 26.0004 4.0625C31.3767 4.0625 35.7504 8.43629 35.7504 13.8125C35.7504 19.0264 31.6367 23.2973 26.4844 23.5505C26.3233 23.5476 26.162 23.5456 26.0004 23.5456C25.8419 23.5456 25.6836 23.548 25.5252 23.5508C20.3689 23.3021 16.2504 19.0294 16.2504 13.8125ZM25.8988 46.9943L24.0588 45.154L25.8988 36.7827L27.7386 45.1541L25.8988 46.9943Z" fill="#ffffff"/>
</g>
<defs>
<clipPath id="clip0">
<rect width="52" height="52" fill="white"/>
</clipPath>
</defs>
</svg>
