<svg width="40" height="40" viewBox="0 0 52 52" fill="none" xmlns="http://www.w3.org/2000/svg">
<path d="M15.1328 23.7656C15.1328 24.8876 14.2235 25.7969 13.1016 25.7969C11.9796 25.7969 11.0703 24.8876 11.0703 23.7656V21.7344C11.0703 20.6124 11.9796 19.7031 13.1016 19.7031C14.2235 19.7031 15.1328 20.6124 15.1328 21.7344V23.7656ZM21.2266 19.7031C20.1046 19.7031 19.1953 20.6124 19.1953 21.7344V23.7656C19.1953 24.8876 20.1046 25.7969 21.2266 25.7969C22.3485 25.7969 23.2578 24.8876 23.2578 23.7656V21.7344C23.2578 20.6124 22.3485 19.7031 21.2266 19.7031ZM15.1328 30.875C15.1328 29.7531 14.2235 28.8438 13.1016 28.8438C11.9796 28.8438 11.0703 29.7531 11.0703 30.875V32.9062C11.0703 34.0282 11.9796 34.9375 13.1016 34.9375C14.2235 34.9375 15.1328 34.0282 15.1328 32.9062V30.875ZM23.2578 32.9062V30.875C23.2578 29.7531 22.3485 28.8438 21.2266 28.8438C20.1046 28.8438 19.1953 29.7531 19.1953 30.875V32.9062C19.1953 34.0282 20.1046 34.9375 21.2266 34.9375C22.3485 34.9375 23.2578 34.0282 23.2578 32.9062ZM13.1016 37.9844C11.9796 37.9844 11.0703 38.8937 11.0703 40.0156V42.0469C11.0703 43.1688 11.9796 44.0781 13.1016 44.0781C14.2235 44.0781 15.1328 43.1688 15.1328 42.0469V40.0156C15.1328 38.8937 14.2235 37.9844 13.1016 37.9844ZM15.1328 12.5938C15.1328 11.4718 14.2235 10.5625 13.1016 10.5625C11.9796 10.5625 11.0703 11.4718 11.0703 12.5938V14.625C11.0703 15.7469 11.9796 16.6562 13.1016 16.6562C14.2235 16.6562 15.1328 15.7469 15.1328 14.625V12.5938ZM23.2578 12.5938C23.2578 11.4718 22.3485 10.5625 21.2266 10.5625C20.1046 10.5625 19.1953 11.4718 19.1953 12.5938V14.625C19.1953 15.7469 20.1046 16.6562 21.2266 16.6562C22.3485 16.6562 23.2578 15.7469 23.2578 14.625V12.5938ZM27.3203 12.5938V14.625C27.3203 15.7469 28.2296 16.6562 29.3516 16.6562C30.4735 16.6562 31.3828 15.7469 31.3828 14.625V12.5938C31.3828 11.4718 30.4735 10.5625 29.3516 10.5625C28.2296 10.5625 27.3203 11.4718 27.3203 12.5938ZM48.0196 50.4889C47.2381 51.4493 46.0848 52 44.8553 52H25.0197C23.7835 52 22.6266 51.4497 21.8459 50.4904C21.0603 49.5252 20.7552 48.2711 21.0088 47.05C21.6649 43.8889 23.403 41.0126 25.9024 38.9508C26.849 38.17 27.8892 37.5202 28.9921 37.0124C27.7635 35.6163 27.0156 33.787 27.0156 31.7855C27.0156 27.4171 30.5691 23.8636 34.9375 23.8636C39.3059 23.8636 42.8594 27.4171 42.8594 31.7855C42.8594 33.787 42.1115 35.6163 40.8829 37.0124C41.9858 37.5202 43.026 38.1696 43.9726 38.9508C46.422 40.9713 48.1398 43.7742 48.8254 46.8604C48.8412 46.9139 48.8547 46.9679 48.8662 47.023C49.1209 48.2513 48.8123 49.5145 48.0196 50.4889V50.4889ZM31.0781 31.7855C31.0781 33.9135 32.8094 35.6449 34.9375 35.6449C37.0655 35.6449 38.7969 33.9135 38.7969 31.7855C38.7969 29.6574 37.0655 27.9261 34.9375 27.9261C32.8094 27.9261 31.0781 29.6574 31.0781 31.7855ZM44.8894 47.88C44.889 47.8788 44.8886 47.8772 44.8886 47.876C43.9131 43.1783 39.728 39.7685 34.9375 39.7685C30.147 39.7685 25.9615 43.1783 24.9864 47.876C24.9772 47.9216 25.0086 47.9363 25.0086 47.9367C25.0094 47.9367 25.0129 47.9375 25.0197 47.9375H44.8553C44.8565 47.9363 44.8839 47.9157 44.8894 47.88V47.88ZM15.2344 47.9375H7.10937V9.14062H9.14062C10.2626 9.14062 11.1719 8.23132 11.1719 7.10938V4.0625H31.3828V7.10938C31.3828 8.23132 32.2921 9.14062 33.4141 9.14062H35.4453V18.0781C35.4453 19.2001 36.3546 20.1094 37.4766 20.1094C38.5985 20.1094 39.5078 19.2001 39.5078 18.0781V7.10938C39.5078 5.98743 38.5985 5.07812 37.4766 5.07812H35.4453V2.03125C35.4453 0.909302 34.536 0 33.4141 0H9.14062C8.01868 0 7.10937 0.909302 7.10937 2.03125V5.07812H5.07812C3.95618 5.07812 3.04688 5.98743 3.04688 7.10938V49.9688C3.04688 51.0907 3.95618 52 5.07812 52H15.2344C16.3563 52 17.2656 51.0907 17.2656 49.9688C17.2656 48.8468 16.3563 47.9375 15.2344 47.9375Z" fill="#black"/>
</svg>
