<?xml version="1.0" encoding="UTF-8"?>
<svg width="38px" height="38px" viewBox="0 0 38 38" version="1.1" xmlns="http://www.w3.org/2000/svg" xmlns:xlink="http://www.w3.org/1999/xlink">
    <title>account_circle-24px (1)</title>
    <g id="Final" stroke="none" stroke-width="1" fill="none" fill-rule="evenodd">
        <g id="Required-Documents-2" transform="translate(-194.000000, -972.000000)">
            <rect id="Rectangle" fill="#22315B" x="164" y="945" width="439" height="92" rx="5"></rect>
            <g id="account_circle-24px-(1)" transform="translate(194.000000, 972.000000)">
                <polygon id="Path" points="0 0 38 0 38 38 0 38"></polygon>
                <path d="M19,3.16666667 C10.26,3.16666667 3.16666667,10.26 3.16666667,19 C3.16666667,27.74 10.26,34.8333333 19,34.8333333 C27.74,34.8333333 34.8333333,27.74 34.8333333,19 C34.8333333,10.26 27.74,3.16666667 19,3.16666667 Z M19,7.91666667 C21.6283333,7.91666667 23.75,10.0383333 23.75,12.6666667 C23.75,15.295 21.6283333,17.4166667 19,17.4166667 C16.3716667,17.4166667 14.25,15.295 14.25,12.6666667 C14.25,10.0383333 16.3716667,7.91666667 19,7.91666667 Z M19,30.4 C15.0416667,30.4 11.5425,28.3733333 9.5,25.3016667 C9.5475,22.1508333 15.8333333,20.425 19,20.425 C22.1508333,20.425 28.4525,22.1508333 28.5,25.3016667 C26.4575,28.3733333 22.9583333,30.4 19,30.4 Z" id="Shape" fill="#FFFFFF" fill-rule="nonzero"></path>
            </g>
        </g>
    </g>
</svg>