<svg width="40" height="40" viewBox="0 0 52 52" fill="none" xmlns="http://www.w3.org/2000/svg">
<path d="M51.8682 44.5577C51.6396 43.4595 50.5637 42.7547 49.4656 42.9832C48.3672 43.2119 47.6623 44.2876 47.891 45.3859C48.0227 46.0184 47.8659 46.6669 47.4608 47.165C47.2261 47.4535 46.703 47.9375 45.8359 47.9375H36.6641C35.5422 47.9375 34.6328 48.8469 34.6328 49.9688C34.6328 51.0906 35.5422 52 36.6641 52H45.8359C47.6974 52 49.4384 51.172 50.6126 49.7282C51.7925 48.2771 52.2503 46.3927 51.8682 44.5577Z" fill="black"/>
<path d="M28.0623 27.7031C34.6475 28.9471 40.8061 31.8945 44.5869 37.5332C45.2115 38.4649 46.4735 38.714 47.4051 38.0891C48.337 37.4643 48.5858 36.2025 47.9611 35.2708C44.628 30.2997 39.7878 26.6857 34.2692 24.8695C37.6325 22.3478 39.8125 18.33 39.8125 13.8125C39.8125 6.19624 33.6162 0 26 0C18.3838 0 12.1875 6.19624 12.1875 13.8125C12.1875 18.333 14.3703 22.3531 17.7372 24.8744C14.6526 25.8898 11.7581 27.469 9.2249 29.5526C4.58023 33.3731 1.35085 38.7021 0.131789 44.5578C-0.25029 46.3927 0.207453 48.2772 1.38741 49.7282C2.56147 51.172 4.30256 52.0001 6.1641 52.0001H15.0312C16.1531 52.0001 17.0625 51.0907 17.0625 49.9688C17.0625 48.847 16.1531 47.9376 15.0312 47.9376H6.1639C5.29676 47.9376 4.77371 47.4536 4.539 47.1651C4.13387 46.6668 3.97705 46.0184 4.10878 45.3858C6.09778 35.832 14.2261 29.2091 23.7294 27.7256C26 27.3711 26.3047 27.3711 28.0623 27.7031ZM16.25 13.8125C16.25 8.4363 20.6238 4.06251 26 4.06251C31.3762 4.06251 35.75 8.4363 35.75 13.8125C35.75 19.0264 31.6362 23.2974 26.4839 23.5506C26.3229 23.5476 26.1616 23.5457 26 23.5457C25.8415 23.5457 25.6831 23.548 25.5248 23.5509C20.3685 23.3021 16.25 19.0294 16.25 13.8125Z" fill="black"/>
</svg>
