<svg xmlns="http://www.w3.org/2000/svg" x="0px" y="0px" width="64" height="64" viewBox="0 0 64 64">
<path d="M 21.777344 7 L 19.222656 14.666016 C 15.389656 14.666016 14.111328 21.694016 14.111328 26.166016 L 14.111328 27.251953 C 14.045259 27.999479 14 28.749012 14 29.5 L 14 33.845703 C 13.383 34.764703 12.5 36.438 12.5 38.5 C 12.5 40.993 13.396594 42.971547 15.308594 44.685547 C 18.617594 53.087547 28.502469 58.507547 28.605469 58.560547 L 29.458984 59 L 34.541016 59 L 35.396484 58.558594 C 37.261484 57.593594 45.226875 52.174328 48.171875 44.736328 C 50.322875 42.989328 51.5 40.794 51.5 38.5 C 51.5 36.409 50.615687 34.686687 50.054688 33.804688 L 50 29.5 C 50 28.749012 49.954741 27.999479 49.888672 27.251953 L 49.888672 26.166016 C 49.888672 12.111016 42.221344 7 21.777344 7 z M 21.777344 20.816406 C 21.777344 20.816406 26.25 22.095703 32 22.095703 C 37.75 22.095703 43.5 20.816406 43.5 20.816406 C 45.018325 22.334731 45.679597 25.635756 45.96875 28.685547 C 45.980691 28.981447 46 29.331927 46 29.525391 L 46.064453 34.466797 L 46.089844 35.171875 L 46.515625 35.705078 C 46.771625 36.026078 47.501953 37.231 47.501953 38.5 C 47.501953 40.113 45.980359 41.402672 45.318359 41.888672 L 44.822266 42.251953 L 44.617188 42.828125 C 42.323187 49.269125 34.876312 54.318 33.570312 55 L 30.429688 55 C 28.652688 54.076 21.103766 49.061125 18.884766 42.828125 L 18.697266 42.302734 L 18.263672 41.947266 C 16.978672 40.902266 16.5 39.969 16.5 38.5 C 16.5 37.057 17.501922 35.822484 17.544922 35.771484 L 18 35.216797 L 18 30.681641 C 18.310227 27.367343 19.201234 23.024418 21.777344 20.816406 z"></path>
</svg>