<?xml version="1.0" encoding="UTF-8"?>
<svg width="24px" height="24px" viewBox="0 0 24 24" version="1.1" xmlns="http://www.w3.org/2000/svg" xmlns:xlink="http://www.w3.org/1999/xlink">
    <title>contact_mail-24px</title>
    <g id="Final" stroke="none" stroke-width="1" fill="none" fill-rule="evenodd">
        <g id="Required-Documents" transform="translate(-604.000000, -287.000000)">
            <g id="contact_mail-24px" transform="translate(604.000000, 287.000000)">
                <polygon id="Path" points="0 0 24 0 24 24 0 24"></polygon>
                <polygon id="Path" points="0 0 24 0 24 24 0 24"></polygon>
                <path d="M22,3 L2,3 C0.9,3 0,3.9 0,5 L0,19 C0,20.1 0.9,21 2,21 L22,21 C23.1,21 23.99,20.1 23.99,19 L24,5 C24,3.9 23.1,3 22,3 Z M15,7 L22,7 L22,8 L15,8 L15,7 Z M15,10 L22,10 L22,11 L15,11 L15,10 Z M15,13 L22,13 L22,14 L15,14 L15,13 Z M8,6 C9.66,6 11,7.34 11,9 C11,10.66 9.66,12 8,12 C6.34,12 5,10.66 5,9 C5,7.34 6.34,6 8,6 Z M14,18 L2,18 L2,17 C2,15 6,13.9 8,13.9 C10,13.9 14,15 14,17 L14,18 Z" id="Shape" fill="#FFFFFF" fill-rule="nonzero"></path>
            </g>
        </g>
    </g>
</svg>