<?xml version="1.0" standalone="no"?>
<!DOCTYPE svg PUBLIC "-//W3C//DTD SVG 20010904//EN"
 "http://www.w3.org/TR/2001/REC-SVG-20010904/DTD/svg10.dtd">
<svg version="1.0" xmlns="http://www.w3.org/2000/svg"
 width="100.000000pt" height="100.000000pt" viewBox="0 0 300.000000 289.000000"
 preserveAspectRatio="xMidYMid meet">
<metadata>
Created by potrace 1.10, written by Peter Selinger 2001-2011
</metadata>
<g transform="translate(0.000000,289.000000) scale(0.100000,-0.100000)"
fill="#fff" stroke="none">
<path d="M1046 2151 c-4 -5 -2 -12 3 -15 5 -4 12 -2 15 3 4 5 2 12 -3 15 -5 4
-12 2 -15 -3z"/>
<path d="M1125 2100 c3 -5 8 -10 11 -10 2 0 4 5 4 10 0 6 -5 10 -11 10 -5 0
-7 -4 -4 -10z"/>
<path d="M1170 2080 c0 -5 5 -10 10 -10 6 0 10 5 10 10 0 6 -4 10 -10 10 -5 0
-10 -4 -10 -10z"/>
<path d="M1145 1951 c-6 -11 9 -23 19 -14 9 9 7 23 -3 23 -6 0 -12 -4 -16 -9z"/>
<path d="M1296 1941 c-4 -5 3 -7 14 -4 23 6 26 13 6 13 -8 0 -17 -4 -20 -9z"/>
<path d="M1340 1946 c0 -2 7 -7 16 -10 8 -3 12 -2 9 4 -6 10 -25 14 -25 6z"/>
<path d="M1687 1910 c-26 -16 -52 -30 -57 -30 -11 0 -195 -180 -245 -240 -21
-25 -2 -9 41 35 43 45 100 99 125 122 25 22 49 48 52 57 4 9 14 16 23 16 9 0
29 9 44 20 16 11 44 27 62 35 18 8 26 14 17 15 -8 0 -36 -13 -62 -30z"/>
<path d="M1793 1929 c9 -5 18 -20 18 -32 1 -18 2 -18 6 -4 5 20 -13 47 -31 47
-6 0 -3 -5 7 -11z"/>
<path d="M1390 1920 c0 -5 5 -10 10 -10 6 0 10 5 10 10 0 6 -4 10 -10 10 -5 0
-10 -4 -10 -10z"/>
<path d="M1440 1920 c0 -5 5 -10 10 -10 6 0 10 5 10 10 0 6 -4 10 -10 10 -5 0
-10 -4 -10 -10z"/>
<path d="M1281 1905 c-1 -22 16 -45 33 -45 5 0 3 6 -6 13 -9 6 -18 21 -21 32
-5 20 -5 20 -6 0z"/>
<path d="M1371 1904 c0 -11 3 -14 6 -6 3 7 2 16 -1 19 -3 4 -6 -2 -5 -13z"/>
<path d="M1777 1899 c4 -13 8 -18 11 -10 2 7 -1 18 -6 23 -8 8 -9 4 -5 -13z"/>
<path d="M1705 1886 c-22 -14 -42 -35 -45 -48 -4 -16 -14 -24 -35 -26 -60 -7
-345 -310 -345 -366 0 -6 14 14 32 44 45 79 275 310 309 310 29 0 49 17 49 40
0 9 21 28 48 43 26 15 43 27 37 27 -5 0 -28 -11 -50 -24z"/>
<path d="M1516 1881 c-3 -5 2 -7 13 -4 13 3 21 -1 25 -14 4 -16 5 -15 3 2 -2
21 -31 33 -41 16z"/>
<path d="M1350 1870 c-9 -6 -10 -10 -3 -10 6 0 15 5 18 10 8 12 4 12 -15 0z"/>
<path d="M1685 1776 c-49 -50 -88 -94 -87 -98 1 -5 -44 -5 -55 1 -2 0 14 17
35 36 20 19 32 35 26 35 -13 0 -94 -85 -94 -99 0 -15 16 -22 34 -15 9 3 13 11
9 17 -4 6 0 8 10 4 26 -10 199 121 227 172 5 9 -23 -14 -61 -51 -38 -37 -74
-68 -80 -68 -6 0 16 26 48 58 33 31 65 67 72 80 6 12 10 21 9 21 -2 -1 -43
-43 -93 -93z m-55 -81 c-7 -8 -18 -15 -24 -15 -6 0 -2 7 8 15 25 19 32 19 16
0z m-95 -45 c3 -5 1 -10 -4 -10 -6 0 -11 5 -11 10 0 6 2 10 4 10 3 0 8 -4 11
-10z"/>
<path d="M1236 1851 c-4 -5 -2 -12 3 -15 5 -4 12 -2 15 3 4 5 2 12 -3 15 -5 4
-12 2 -15 -3z"/>
<path d="M1517 1849 c7 -7 15 -10 18 -7 3 3 -2 9 -12 12 -14 6 -15 5 -6 -5z"/>
<path d="M1154 1829 c-10 -17 23 -46 37 -32 7 7 9 19 6 27 -7 18 -33 21 -43 5z
m36 -15 c0 -9 -5 -14 -12 -12 -18 6 -21 28 -4 28 9 0 16 -7 16 -16z"/>
<path d="M1320 1810 c0 -5 5 -10 10 -10 6 0 10 5 10 10 0 6 -4 10 -10 10 -5 0
-10 -4 -10 -10z"/>
<path d="M1715 1720 c-4 -6 -3 -16 3 -22 6 -6 12 -6 17 2 4 6 3 16 -3 22 -6 6
-12 6 -17 -2z"/>
<path d="M1250 1700 c0 -5 5 -10 10 -10 6 0 10 5 10 10 0 6 -4 10 -10 10 -5 0
-10 -4 -10 -10z"/>
<path d="M1320 1696 c-10 -13 -10 -19 0 -32 12 -14 15 -14 29 0 14 15 14 17 0
32 -14 14 -17 14 -29 0z m23 -22 c-4 -10 -9 -12 -15 -6 -12 12 -1 35 12 27 5
-3 6 -13 3 -21z"/>
<path d="M1733 1653 c9 -2 17 -11 17 -19 0 -16 -11 -18 -28 -4 -7 5 -5 2 3 -7
11 -13 18 -14 26 -6 16 16 4 43 -18 42 -17 -1 -17 -2 0 -6z"/>
<path d="M1611 1636 c-17 -20 13 -43 34 -26 12 10 13 16 4 26 -6 8 -15 14 -19
14 -4 0 -13 -6 -19 -14z m28 -17 c-15 -9 -32 -2 -24 11 3 5 13 6 21 3 12 -4
13 -8 3 -14z"/>
<path d="M1318 1558 c-31 -41 -61 -98 -55 -105 3 -2 8 5 12 16 3 11 22 43 41
71 38 56 40 68 2 18z"/>
<path d="M1690 1555 c-15 -19 -4 -52 21 -60 21 -7 49 10 49 28 0 6 -6 2 -14
-8 -8 -11 -19 -16 -30 -12 -26 10 -32 38 -11 53 10 8 14 14 8 14 -6 0 -16 -7
-23 -15z"/>
<path d="M1742 1556 c7 -8 15 -12 17 -11 5 6 -10 25 -20 25 -5 0 -4 -6 3 -14z"/>
<path d="M1569 1551 c11 -7 11 -9 0 -14 -10 -4 -9 -6 4 -6 9 -1 17 6 17 14 0
8 -8 15 -17 15 -14 0 -15 -2 -4 -9z"/>
<path d="M1816 1551 c-8 -12 3 -41 15 -41 13 0 11 17 -3 24 -7 3 -2 3 12 -1
22 -5 23 -4 11 11 -15 18 -27 20 -35 7z"/>
<path d="M1420 1539 c0 -5 5 -7 10 -4 6 3 10 8 10 11 0 2 -4 4 -10 4 -5 0 -10
-5 -10 -11z"/>
<path d="M1463 1509 c-18 -12 -33 -25 -33 -31 0 -5 -4 -7 -10 -3 -5 3 -18 -3
-29 -14 -11 -11 -23 -16 -27 -13 -4 4 -3 1 1 -7 6 -11 4 -13 -9 -8 -11 5 -15
3 -10 -5 5 -8 2 -9 -10 -5 -10 4 -15 3 -11 -3 8 -12 3 -12 -29 0 -14 5 -26 7
-26 5 0 -3 12 -10 26 -15 22 -9 34 -6 70 15 24 14 44 30 44 36 0 6 4 8 8 5 4
-2 26 11 47 29 46 39 45 44 -2 14z"/>
<path d="M1856 1462 c-3 -5 1 -9 9 -9 8 0 15 4 15 9 0 4 -4 8 -9 8 -6 0 -12
-4 -15 -8z"/>
<path d="M1515 1450 c4 -6 11 -8 16 -5 14 9 11 15 -7 15 -8 0 -12 -5 -9 -10z"/>
<path d="M1745 1450 c3 -5 10 -10 16 -10 5 0 9 5 9 10 0 6 -7 10 -16 10 -8 0
-12 -4 -9 -10z"/>
<path d="M1251 1429 c-1 -21 24 -43 41 -36 8 3 6 6 -5 6 -10 1 -22 11 -27 24
-6 15 -9 17 -9 6z"/>
<path d="M1676 1411 c-4 -5 -2 -12 3 -15 5 -4 12 -2 15 3 4 5 2 12 -3 15 -5 4
-12 2 -15 -3z"/>
<path d="M1891 1376 c-9 -11 -8 -15 5 -20 23 -9 38 8 21 23 -11 9 -17 8 -26
-3z m24 -6 c3 -5 1 -10 -4 -10 -6 0 -11 5 -11 10 0 6 2 10 4 10 3 0 8 -4 11
-10z"/>
<path d="M1856 1351 c-4 -5 -2 -12 3 -15 5 -4 12 -2 15 3 4 5 2 12 -3 15 -5 4
-12 2 -15 -3z"/>
<path d="M829 1209 c15 -6 34 -6 50 0 22 8 19 9 -24 10 -42 0 -46 -2 -26 -10z"/>
<path d="M1038 1133 c4 -132 10 -153 8 -30 l-1 107 53 0 c28 0 52 -4 52 -10 0
-5 -8 -7 -17 -4 -16 5 -16 4 0 -6 22 -14 32 -7 24 15 -5 11 -21 15 -64 15
l-58 0 3 -87z"/>
<path d="M1240 1212 c0 -4 5 -13 11 -19 7 -7 10 -47 7 -112 -3 -91 -1 -101 15
-101 9 0 17 4 17 10 0 5 -8 6 -17 3 -16 -6 -16 -5 -4 10 17 21 11 168 -9 191
-10 13 -10 16 2 16 8 0 47 -38 87 -85 40 -47 77 -85 82 -85 7 0 9 32 7 85 -2
65 0 84 10 80 6 -2 12 0 12 5 0 6 -8 10 -18 10 -16 0 -17 -8 -14 -68 7 -114 5
-115 -77 -19 -44 53 -81 87 -92 87 -10 0 -19 -4 -19 -8z"/>
<path d="M1560 1213 c0 -5 26 -7 57 -5 37 2 53 0 45 -6 -11 -7 -11 -10 2 -15
11 -5 16 -1 16 13 0 18 -7 20 -60 20 -33 0 -60 -3 -60 -7z"/>
<path d="M1823 1209 c11 -7 23 -7 35 0 14 9 11 10 -18 10 -29 0 -32 -1 -17
-10z"/>
<path d="M1995 1100 l0 -120 25 0 25 0 0 120 0 120 -25 0 -25 0 0 -120z m35 0
c0 -67 -4 -110 -10 -110 -6 0 -10 43 -10 110 0 67 4 110 10 110 6 0 10 -43 10
-110z"/>
<path d="M2156 1204 c-20 -20 -20 -23 2 -19 9 1 16 7 15 12 -1 6 14 10 34 9
27 -1 37 -6 39 -19 4 -30 14 -33 14 -5 0 14 -7 29 -16 32 -29 11 -72 6 -88
-10z"/>
<path d="M917 1193 c4 -11 3 -14 -5 -9 -17 10 -15 1 3 -14 13 -11 15 -8 15 14
0 14 -4 26 -10 26 -5 0 -6 -7 -3 -17z"/>
<path d="M1887 1193 c6 -16 5 -17 -13 -3 -18 14 -18 14 -5 -2 7 -10 17 -18 22
-18 12 0 11 27 -1 35 -6 4 -7 -1 -3 -12z"/>
<path d="M751 1174 c-12 -15 -21 -34 -20 -43 0 -10 4 -6 10 9 6 13 17 33 26
42 9 10 13 18 10 18 -3 0 -15 -12 -26 -26z"/>
<path d="M1064 1150 c1 -44 2 -45 36 -48 19 -2 38 -9 42 -15 5 -8 8 -4 8 8 0
18 -5 20 -39 17 l-40 -4 -4 44 -4 43 1 -45z"/>
<path d="M1594 1150 c1 -45 1 -45 39 -48 20 -2 35 -7 32 -13 -4 -5 -1 -9 4 -9
6 0 11 8 11 18 0 14 -7 17 -39 14 l-40 -4 -4 44 -4 43 1 -45z"/>
<path d="M1802 1188 c-21 -21 -13 -48 19 -66 58 -32 79 -53 80 -80 0 -15 3
-21 6 -14 12 30 -8 59 -57 86 -50 27 -62 50 -38 74 7 7 10 12 7 12 -3 0 -10
-5 -17 -12z"/>
<path d="M779 1173 c-13 -16 -12 -17 4 -4 9 7 17 15 17 17 0 8 -8 3 -21 -13z"/>
<path d="M1771 1159 c0 -16 8 -33 22 -45 22 -19 22 -19 5 1 -9 11 -18 31 -21
45 l-4 25 -2 -26z"/>
<path d="M1291 1154 c23 -34 154 -182 158 -179 3 3 -120 149 -157 185 -13 13
-13 13 -1 -6z"/>
<path d="M1573 1090 c0 -47 2 -66 4 -42 2 23 2 61 0 85 -2 23 -4 4 -4 -43z"/>
<path d="M2130 1157 c0 -21 33 -55 78 -79 21 -11 32 -25 33 -40 1 -18 2 -19 6
-5 6 23 -19 51 -59 68 -18 7 -36 25 -44 43 -8 20 -13 24 -14 13z"/>
<path d="M2160 1146 c0 -2 8 -10 18 -17 15 -13 16 -12 3 4 -13 16 -21 21 -21
13z"/>
<path d="M2240 1088 c25 -24 38 -29 25 -9 -3 6 -16 16 -28 22 -20 11 -20 9 3
-13z"/>
<path d="M906 1083 c19 -4 20 -9 14 -49 -4 -25 -4 -41 0 -37 4 4 10 27 13 51
5 40 4 42 -21 41 -21 -1 -23 -3 -6 -6z"/>
<path d="M1063 1045 c0 -27 2 -38 4 -22 2 15 2 37 0 50 -2 12 -4 0 -4 -28z"/>
<path d="M1593 1045 c0 -27 2 -38 4 -22 2 15 2 37 0 50 -2 12 -4 0 -4 -28z"/>
<path d="M1858 1070 c12 -11 22 -26 22 -32 0 -6 3 -9 6 -6 9 10 -14 45 -33 52
-14 6 -13 2 5 -14z"/>
<path d="M899 1038 c-3 -22 -1 -34 4 -29 5 5 7 21 5 37 -3 27 -4 26 -9 -8z"/>
<path d="M746 1025 c4 -9 16 -21 28 -27 19 -10 19 -9 -3 16 -28 30 -33 32 -25
11z"/>
<path d="M787 1019 c12 -12 24 -21 27 -18 2 2 -8 13 -22 23 l-27 19 22 -24z"/>
<path d="M1770 1016 c0 -31 6 -34 13 -6 3 11 1 23 -4 26 -5 3 -9 -6 -9 -20z"/>
<path d="M2130 1016 c0 -27 14 -34 71 -32 37 1 69 20 69 40 0 6 -5 3 -11 -7
-6 -9 -15 -14 -21 -11 -6 4 -8 3 -5 -2 3 -5 -15 -9 -40 -9 -32 0 -48 5 -51 15
-5 13 -3 13 14 0 19 -14 19 -14 0 8 -24 28 -26 28 -26 -2z"/>
<path d="M1149 1013 c-1 -5 -1 -11 -1 -14 1 -3 -24 -7 -55 -8 -81 -2 -79 -11
1 -11 55 0 67 3 63 14 -3 8 -1 17 6 20 9 3 9 5 0 5 -7 1 -14 -2 -14 -6z"/>
<path d="M1679 1013 c-1 -5 -1 -11 0 -15 0 -4 -26 -6 -59 -5 -33 1 -60 -1 -60
-5 0 -5 29 -8 65 -8 58 0 65 2 65 20 0 19 -9 29 -11 13z"/>
<path d="M1864 1009 c-4 -7 -21 -9 -43 -5 -21 3 -31 2 -22 -3 10 -6 10 -10 1
-13 -6 -2 9 -3 34 -3 26 1 51 7 56 13 7 9 7 9 -2 2 -19 -15 -32 -12 -18 5 7 8
10 15 7 15 -3 0 -9 -5 -13 -11z"/>
<path d="M816 991 c-12 -4 0 -7 33 -7 29 0 46 3 38 8 -15 9 -45 9 -71 -1z"/>
<path d="M1828 973 c7 -3 16 -2 19 1 4 3 -2 6 -13 5 -11 0 -14 -3 -6 -6z"/>
<path d="M1947 813 c-11 -10 -8 -83 3 -83 6 0 10 20 10 45 0 46 -2 50 -13 38z"/>
<path d="M1042 770 c2 -34 5 -40 25 -40 13 0 23 5 23 10 0 6 -6 10 -14 10 -30
0 -27 41 4 53 9 3 3 6 -13 6 -26 1 -28 -1 -25 -39z"/>
<path d="M1190 770 c0 -23 5 -40 11 -40 7 0 9 10 5 25 -4 15 -2 25 4 25 6 0 8
-4 5 -10 -3 -5 -1 -10 5 -10 6 0 9 -4 5 -9 -3 -5 0 -13 6 -16 17 -11 23 3 9
21 -11 12 -11 20 -2 35 13 21 3 26 -16 7 -9 -9 -12 -9 -12 0 0 7 -4 12 -10 12
-5 0 -10 -18 -10 -40z"/>
<path d="M1280 800 c0 -6 6 -13 14 -16 8 -3 11 -15 8 -30 -2 -13 0 -24 6 -24
6 0 8 9 5 20 -3 11 0 20 5 20 6 0 16 9 22 20 9 16 8 20 -6 20 -11 0 -14 -5
-10 -16 5 -12 2 -15 -10 -10 -8 3 -18 6 -20 6 -3 0 -2 5 1 10 3 6 1 10 -4 10
-6 0 -11 -5 -11 -10z"/>
<path d="M1390 805 c-1 -5 -2 -13 -1 -17 0 -5 -3 -8 -9 -8 -5 0 -10 -5 -10
-12 0 -8 6 -7 16 4 9 9 14 22 11 30 -3 7 -6 9 -7 3z"/>
<path d="M1420 796 c0 -9 5 -16 10 -16 6 0 10 4 10 9 0 6 -4 13 -10 16 -5 3
-10 -1 -10 -9z"/>
<path d="M1530 771 c0 -23 4 -41 8 -41 4 0 6 16 4 36 -4 33 -2 35 19 32 13 -2
28 -7 32 -13 5 -6 7 -4 4 5 -2 8 -18 16 -35 18 -31 3 -32 2 -32 -37z"/>
<path d="M1788 798 c-7 -19 6 -61 19 -65 7 -3 10 8 8 29 -2 18 -4 36 -4 41 -1
12 -19 8 -23 -5z"/>
<path d="M1651 792 c-1 -7 -5 -10 -11 -7 -5 3 -10 1 -10 -5 0 -7 6 -10 14 -7
8 3 20 -1 28 -10 11 -14 10 -16 -9 -11 -27 7 -42 -9 -18 -18 10 -4 24 1 33 11
13 13 14 19 4 22 -6 3 -9 10 -6 15 4 6 2 8 -4 4 -5 -3 -13 0 -15 6 -4 10 -6
10 -6 0z"/>
<path d="M1872 791 c-6 -4 -13 -18 -14 -31 -3 -21 2 -26 25 -28 23 -3 27 0 27
21 0 28 -20 49 -38 38z m25 -29 c-1 -17 -37 -27 -37 -10 0 4 8 8 18 8 14 0 15
2 2 10 -13 8 -13 10 2 10 10 0 16 -7 15 -18z"/>
<path d="M1720 761 c0 -17 5 -31 10 -31 6 0 10 11 10 24 0 14 -4 28 -10 31 -6
4 -10 -7 -10 -24z"/>
<path d="M1065 770 c4 -6 11 -8 16 -5 14 9 11 15 -7 15 -8 0 -12 -5 -9 -10z"/>
<path d="M1550 770 c0 -5 9 -10 21 -10 11 0 17 5 14 10 -3 6 -13 10 -21 10 -8
0 -14 -4 -14 -10z"/>
<path d="M1128 763 c6 -2 18 -2 25 0 6 3 1 5 -13 5 -14 0 -19 -2 -12 -5z"/>
<path d="M1383 747 c-6 -10 24 -20 42 -13 8 3 15 10 15 15 0 11 -50 9 -57 -2z"/>
</g>
</svg>
