<?xml version="1.0" standalone="no"?>
<!DOCTYPE svg PUBLIC "-//W3C//DTD SVG 20010904//EN"
 "http://www.w3.org/TR/2001/REC-SVG-20010904/DTD/svg10.dtd">
<svg version="1.0" xmlns="http://www.w3.org/2000/svg"
 width="48.000000pt" height="48.000000pt" viewBox="0 0 48.000000 48.000000"
 preserveAspectRatio="xMidYMid meet">

<g transform="translate(0.000000,48.000000) scale(0.100000,-0.100000)"
fill="#000000" stroke="none">
<path d="M143 460 c-3 -11 -14 -20 -24 -20 -15 0 -19 -7 -19 -40 l0 -40 70 0
70 0 0 40 c0 33 -4 40 -19 40 -10 0 -21 9 -24 20 -3 12 -14 20 -27 20 -13 0
-24 -8 -27 -20z m37 -10 c0 -5 -4 -10 -10 -10 -5 0 -10 5 -10 10 0 6 5 10 10
10 6 0 10 -4 10 -10z m40 -50 c0 -17 -7 -20 -50 -20 -43 0 -50 3 -50 20 0 17
7 20 50 20 43 0 50 -3 50 -20z"/>
<path d="M10 210 l0 -210 160 0 160 0 0 45 c0 25 -4 45 -10 45 -5 0 -10 -16
-10 -35 l0 -35 -140 0 -140 0 0 190 0 190 30 0 c17 0 30 5 30 10 0 6 -18 10
-40 10 l-40 0 0 -210z"/>
<path d="M250 410 c0 -5 14 -10 30 -10 l30 0 0 -80 c0 -47 4 -80 10 -80 6 0
10 37 10 90 l0 90 -40 0 c-22 0 -40 -4 -40 -10z"/>
<path d="M50 210 l0 -170 120 0 c73 0 120 4 120 10 0 6 -43 10 -110 10 l-110
0 0 150 c0 93 4 150 10 150 6 0 10 5 10 10 0 6 -9 10 -20 10 -19 0 -20 -7 -20
-170z"/>
<path d="M250 370 c0 -5 5 -10 10 -10 6 0 10 -33 10 -80 0 -47 4 -80 10 -80 6
0 10 37 10 90 0 83 -1 90 -20 90 -11 0 -20 -4 -20 -10z"/>
<path d="M90 330 c0 -6 33 -10 80 -10 47 0 80 4 80 10 0 6 -33 10 -80 10 -47
0 -80 -4 -80 -10z"/>
<path d="M332 231 c-45 -49 -82 -96 -82 -103 0 -8 -5 -19 -12 -26 -6 -6 -9
-15 -5 -19 4 -4 13 -1 19 5 7 7 21 12 33 12 12 0 47 26 85 65 35 35 66 62 69
60 2 -3 -4 -14 -14 -25 -28 -31 -8 -37 22 -7 21 21 25 29 15 39 -8 8 -9 15 0
25 8 10 6 19 -12 38 -13 14 -26 25 -30 25 -3 0 -43 -40 -88 -89z m103 48 c11
-17 -1 -21 -15 -4 -8 9 -8 15 -2 15 6 0 14 -5 17 -11z m-77 -96 c-55 -55 -88
-77 -88 -57 0 4 28 37 61 75 50 57 64 67 76 58 12 -10 4 -23 -49 -76z"/>
<path d="M90 270 c0 -6 33 -10 80 -10 47 0 80 4 80 10 0 6 -33 10 -80 10 -47
0 -80 -4 -80 -10z"/>
<path d="M90 210 c0 -6 33 -10 80 -10 47 0 80 4 80 10 0 6 -33 10 -80 10 -47
0 -80 -4 -80 -10z"/>
<path d="M90 150 c0 -6 30 -10 70 -10 40 0 70 4 70 10 0 6 -30 10 -70 10 -40
0 -70 -4 -70 -10z"/>
<path d="M90 90 c0 -6 27 -10 60 -10 33 0 60 4 60 10 0 6 -27 10 -60 10 -33 0
-60 -4 -60 -10z"/>
</g>
</svg>
