<?xml version="1.0" standalone="no"?>
<!DOCTYPE svg PUBLIC "-//W3C//DTD SVG 20010904//EN"
 "http://www.w3.org/TR/2001/REC-SVG-20010904/DTD/svg10.dtd">
<svg version="1.0" xmlns="http://www.w3.org/2000/svg"
 width="92" height="58" viewBox="0 0 150.000000 150.000000"
 preserveAspectRatio="xMidYMid meet">
<metadata>
Created by potrace 1.10, written by Peter Selinger 2001-2011
</metadata>
<g transform="translate(0.000000,150.000000) scale(0.100000,-0.100000)"
fill="#000000" stroke="none">
<path d="M287 1489 c-14 -8 -16 -18 -11 -50 l7 -39 -71 0 c-39 0 -73 -4 -77
-9 -3 -5 -5 -317 -5 -692 0 -690 0 -698 33 -699 4 0 3 9 -3 19 -14 27 -13 38
3 17 11 -16 48 -17 524 -14 408 2 509 0 501 -9 -12 -15 1 -17 22 -3 11 7 14
25 12 75 l-4 65 76 0 c54 0 76 4 76 13 1 6 1 229 1 493 l0 482 -182 181 c-100
100 -189 181 -197 181 -10 0 -6 -10 13 -36 l28 -36 -27 17 c-14 10 -26 21 -26
26 0 5 -140 8 -311 8 -238 0 -315 3 -327 13 -11 9 -14 9 -9 1 5 -7 -1 -17 -13
-23 -20 -11 -21 -10 -10 9 12 23 5 26 -23 10z m693 -201 c0 -90 -1 -169 0
-175 0 -10 42 -13 175 -13 l175 0 0 -450 0 -450 -505 0 -505 0 0 625 0 625
330 0 331 0 -1 -162z m245 -70 l69 -68 -137 0 -137 0 1 136 1 136 66 -69 c37
-37 99 -98 137 -135z m-925 162 c0 -5 -4 -10 -10 -10 -5 0 -10 5 -10 10 0 6 5
10 10 10 6 0 10 -4 10 -10z m-20 -617 c0 -324 -1 -594 0 -600 0 -10 97 -13
450 -13 l450 0 0 -50 0 -50 -505 0 -505 0 0 650 0 650 55 0 56 0 -1 -587z
m1060 368 c0 -4 -13 -8 -29 -7 -16 1 -27 4 -24 9 6 10 53 9 53 -2z m-130 -967
c0 -8 -4 -12 -10 -9 -5 3 -10 10 -10 16 0 5 5 9 10 9 6 0 10 -7 10 -16z"/>
<path d="M575 1331 c-3 -5 -2 -12 3 -15 5 -3 9 1 9 9 0 17 -3 19 -12 6z"/>
<path d="M600 1331 c0 -6 4 -13 10 -16 6 -3 7 1 4 9 -7 18 -14 21 -14 7z"/>
<path d="M410 1306 c0 -2 7 -7 16 -10 8 -3 12 -2 9 4 -6 10 -25 14 -25 6z"/>
<path d="M436 1268 c-17 -9 -13 -177 4 -188 13 -8 168 -6 176 3 8 8 9 175 2
183 -9 8 -167 10 -182 2z m143 -93 l0 -55 -54 0 -55 0 0 55 0 55 54 0 54 0 1
-55z"/>
<path d="M434 1012 c-15 -14 -15 -17 1 -28 14 -11 33 -12 78 -5 4 0 7 10 7 21
0 11 -3 20 -7 21 -5 0 -20 2 -35 4 -17 2 -35 -3 -44 -13z"/>
<path d="M581 1013 c-39 -29 4 -34 310 -33 167 0 310 0 317 0 13 0 18 40 5 40
-5 0 -145 1 -312 3 -221 1 -308 -1 -320 -10z"/>
<path d="M1249 948 c-4 -10 -4 -66 1 -62 5 6 9 64 3 64 -2 0 -3 -1 -4 -2z"/>
<path d="M411 930 c-10 -5 -9 -8 2 -13 7 -3 19 -2 26 3 10 5 9 8 -2 13 -7 3
-19 2 -26 -3z"/>
<path d="M1208 913 c6 -2 9 -10 6 -15 -4 -7 -2 -8 5 -4 13 9 5 26 -12 25 -9 0
-8 -2 1 -6z"/>
<path d="M443 873 c-7 -3 -13 -13 -13 -23 0 -21 15 -28 50 -24 14 1 28 3 33 3
4 1 7 10 7 21 0 11 -3 21 -7 21 -34 5 -60 6 -70 2z"/>
<path d="M584 865 c-8 -6 -10 -15 -6 -23 7 -9 78 -12 313 -12 167 -1 310 0
317 0 13 0 18 40 5 40 -5 0 -145 1 -312 3 -191 1 -309 -2 -317 -8z"/>
<path d="M1233 805 c0 -8 4 -12 9 -9 5 3 6 10 3 15 -9 13 -12 11 -12 -6z"/>
<path d="M484 788 c-5 -7 -3 -8 6 -3 9 6 12 4 8 -7 -4 -8 0 -15 7 -15 10 0 11
5 4 19 -11 21 -15 22 -25 6z"/>
<path d="M416 767 c3 -10 9 -15 12 -12 3 3 0 11 -7 18 -10 9 -11 8 -5 -6z"/>
<path d="M1236 771 c-3 -4 4 -17 17 -27 22 -19 22 -19 4 2 -9 11 -14 24 -10
27 3 4 4 7 0 7 -3 0 -8 -4 -11 -9z"/>
<path d="M432 713 c-16 -12 -16 -14 0 -26 19 -15 75 -14 91 2 28 28 -57 51
-91 24z"/>
<path d="M581 713 c-41 -30 3 -35 315 -34 170 0 312 1 317 1 4 0 7 9 7 20 0
11 -3 20 -7 20 -337 6 -619 3 -632 -7z"/>
<path d="M411 627 c-13 -21 -12 -21 5 -5 10 10 16 20 13 22 -3 3 -11 -5 -18
-17z"/>
<path d="M494 618 c0 -10 1 -18 3 -18 1 0 7 8 12 18 7 13 6 19 -2 19 -7 0 -13
-9 -13 -19z"/>
<path d="M605 629 c-4 -6 -5 -12 -2 -15 2 -3 7 2 10 11 7 17 1 20 -8 4z"/>
<path d="M1235 611 c-3 -5 -2 -12 3 -15 5 -3 9 1 9 9 0 17 -3 19 -12 6z"/>
<path d="M443 573 c-14 -5 -18 -42 -5 -44 28 -5 59 -6 69 -2 14 5 18 43 6 44
-5 0 -19 2 -33 3 -14 2 -31 1 -37 -1z"/>
<path d="M590 572 c-14 -5 -12 -42 3 -42 12 -1 604 -1 620 0 4 0 7 9 7 20 0
11 -3 20 -7 20 -87 3 -616 4 -623 2z"/>
<path d="M1245 490 c0 -16 3 -31 6 -34 3 -3 5 7 5 23 -1 16 -3 32 -6 35 -3 3
-5 -8 -5 -24z"/>
<path d="M1214 502 c3 -5 0 -13 -6 -15 -9 -4 -10 -6 -1 -6 17 -1 25 16 12 25
-7 4 -9 3 -5 -4z"/>
<path d="M573 485 c0 -7 6 -11 14 -8 7 3 13 6 13 8 0 2 -6 5 -13 8 -8 3 -14
-1 -14 -8z"/>
<path d="M443 423 c-14 -5 -18 -42 -5 -44 28 -5 59 -6 69 -2 14 5 18 42 6 44
-34 5 -60 6 -70 2z"/>
<path d="M590 422 c-15 -5 -12 -42 3 -42 12 -1 606 -1 620 0 4 0 7 9 7 20 0
11 -3 20 -7 20 -5 0 -144 1 -311 3 -166 1 -307 1 -312 -1z"/>
<path d="M1146 1232 c-3 -5 1 -9 9 -9 8 0 12 4 9 9 -3 4 -7 8 -9 8 -2 0 -6 -4
-9 -8z"/>
<path d="M1409 203 c-13 -16 -12 -17 4 -4 16 13 21 21 13 21 -2 0 -10 -8 -17
-17z"/>
</g>
</svg>
