<?xml version="1.0" standalone="no"?>
<!DOCTYPE svg PUBLIC "-//W3C//DTD SVG 20010904//EN"
 "http://www.w3.org/TR/2001/REC-SVG-20010904/DTD/svg10.dtd">
<svg version="1.0" xmlns="http://www.w3.org/2000/svg"
 width="100.000000pt" height="100.000000pt" viewBox="0 0 100.000000 100.000000"
 preserveAspectRatio="xMidYMid meet">

<g transform="translate(0.000000,100.000000) scale(0.100000,-0.100000)"
fill="#000000" stroke="none">
<path d="M140 500 l0 -460 360 0 360 0 0 328 -1 327 -138 133 -139 132 -221 0
-221 0 0 -460z m420 290 l0 -130 130 0 130 0 0 -290 0 -290 -320 0 -320 0 0
420 0 420 190 0 190 0 0 -130z m185 -39 l49 -51 -97 0 -97 0 0 91 0 91 48 -40
c26 -22 69 -63 97 -91z"/>
<path d="M438 575 c-9 -20 -8 -33 5 -65 17 -44 13 -69 -22 -138 -12 -24 -34
-48 -54 -58 -67 -34 -87 -73 -48 -94 29 -15 29 -14 81 39 37 38 62 54 105 66
51 15 59 15 90 1 42 -20 69 -20 89 0 38 38 7 67 -65 62 -50 -3 -53 -2 -86 39
-33 40 -34 43 -22 82 9 31 9 47 1 66 -16 34 -58 34 -74 0z m81 -199 c-2 -2
-16 -7 -31 -11 -27 -7 -27 -6 -15 24 11 31 11 31 31 11 11 -11 18 -21 15 -24z"/>
</g>
</svg>
