<svg width="40" height="40" viewBox="0 0 52 52" fill="none" xmlns="http://www.w3.org/2000/svg">
<path d="M16.4796 32.2577H10.2742C9.15056 32.2577 8.23975 33.1686 8.23975 34.2922C8.23975 35.4159 9.15066 36.3267 10.2742 36.3267H16.4796C17.6033 36.3267 18.5141 35.4158 18.5141 34.2922C18.5142 33.1685 17.6033 32.2577 16.4796 32.2577Z" fill="black"/>
<path d="M25.1264 24.1195H10.2744C9.15071 24.1195 8.2399 25.0304 8.2399 26.154C8.2399 27.2777 9.15081 28.1885 10.2744 28.1885H25.1264C26.2501 28.1885 27.1609 27.2776 27.1609 26.154C27.1609 25.0304 26.2501 24.1195 25.1264 24.1195Z" fill="black"/>
<path d="M25.1264 15.9813H24.7082H10.2744C9.15071 15.9813 8.2399 16.8922 8.2399 18.0158C8.2399 19.1394 9.15081 20.0503 10.2744 20.0503H24.7083H25.1265C26.2502 20.0503 27.161 19.1394 27.161 18.0158C27.161 16.8922 26.2501 15.9813 25.1264 15.9813Z" fill="black"/>
<path d="M27.2628 3.16223H8.13819C3.65076 3.16223 0 6.81299 0 11.3004V40.8012C0 42.9754 0.846725 45.0193 2.38428 46.5565C3.92142 48.0933 5.96455 48.9394 8.13819 48.9394C8.1388 48.9394 8.13971 48.9394 8.14022 48.9394L27.2649 48.9348C31.7511 48.9337 35.4011 45.2831 35.4011 40.7967V11.3004C35.401 6.81299 31.7502 3.16223 27.2628 3.16223ZM31.3318 11.3004V40.7967C31.3318 43.0399 29.5069 44.8652 27.2637 44.8658L8.1391 44.8702C8.1388 44.8702 8.13849 44.8702 8.13819 44.8702C7.05147 44.8702 6.02975 44.4471 5.26123 43.6787C4.49251 42.9102 4.06909 41.8883 4.06909 40.8011V11.3003C4.06909 9.0566 5.89447 7.23122 8.13819 7.23122H27.2629C29.5065 7.23133 31.3319 9.0567 31.3318 11.3004Z" fill="black"/>
<path d="M49.9568 32.6631C49.957 32.6631 49.9573 32.6631 49.9575 32.6631C51.0808 32.6631 51.9916 31.7527 51.992 30.6295L51.9999 9.16426C51.9999 5.79869 49.2618 3.06067 45.8963 3.06067C42.5307 3.06067 39.7927 5.79879 39.7927 9.16314L39.7752 40.9343C39.775 41.3377 39.8947 41.7321 40.1192 42.0673L44.062 47.956C44.4343 48.5121 45.0562 48.8494 45.7254 48.8584C45.7345 48.8585 45.7437 48.8586 45.7527 48.8586C46.4115 48.8586 47.0305 48.5393 47.4122 48.0007L51.6103 42.0797C52.2602 41.1631 52.0441 39.8932 51.1274 39.2433C50.2108 38.5934 48.941 38.8095 48.291 39.7263L45.8005 43.2387L43.8446 40.3177L43.8591 14.1488H47.9291L47.923 30.6277C47.9226 31.7514 48.8332 32.6626 49.9568 32.6631ZM43.8612 10.0796L43.8617 9.16406C43.8617 8.0422 44.7745 7.12956 45.8962 7.12956C47.0181 7.12956 47.9307 8.0422 47.9307 9.16324L47.9304 10.0796H43.8612Z" fill="black"/>
</svg>
